:SAMPLES-PER-SECOND 30
:FULLY-SPECIFIED
:DEGREES
1
root  17.5101 40.0094 3.58504 166.862 -86.4082 -166.489
RightUpLeg  -1.66086 -5.09247 -0.767526
RightLeg  1.27875 4.30759 -0.621263
RightFoot  -0.808045 -0.0844668 0.87222
RightToes  5.82063e-011 0 -3.6325e-017
Spine  2.36372 0.843185 4.24063
Spine1  0.417312 1.24436 -2.48438
HEad  -8.44796 -10.5243 -3.25441
LeftShoulder1  0.251901 1.11601 -2.76427
LeftArm  -20.973 4.69869 -17.5092
LeftForeArm  1.09343 1.03321 2.50202
LeftHand  -0.0504877 3.4453 1.74309
RightShoulder  0.0876232 -2.35236 -0.664351
RightArm  -10.8365 2.92575 11.0259
RightForeArm  -1.66239 -1.70711 -3.05346
RightHand  -0.00750162 4.49057 -0.44562
LeftUpLeg  -3.89429 8.45796 5.49359
LeftLeg  5.28613 -1.19085 -0.436437
LeftFoot  -1.79809 -0.0296814 0.5477
LeftToes  2.58842e-009 -1.78069e-010 3.24654e-012
2
root  17.5101 40.0094 3.58544 167.068 -86.4088 -166.686
RightUpLeg  -1.71156 -5.1059 -0.781971
RightLeg  1.36798 4.32872 -0.60793
RightFoot  -0.855531 -0.0827942 0.846263
RightToes  5.82063e-011 0 -3.6325e-017
Spine  2.32702 0.849372 4.28146
Spine1  0.454813 1.25744 -2.52368
HEad  -8.37173 -10.6399 -3.16127
LeftShoulder1  0.251901 1.14859 -2.66179
LeftArm  -20.9251 4.7205 -17.619
LeftForeArm  0.910543 0.967479 2.45848
LeftHand  -0.0515315 3.66857 1.89477
RightShoulder  0.0876173 -2.36748 -0.58239
RightArm  -10.7655 3.0008 10.964
RightForeArm  -1.62704 -1.76214 -3.02329
RightHand  -0.00539835 4.33606 -0.405983
LeftUpLeg  -3.86465 8.44946 5.50032
LeftLeg  5.21918 -1.21019 -0.443962
LeftFoot  -1.79866 -0.0195192 0.389765
LeftToes  2.58842e-009 -1.78069e-010 3.24654e-012
3
root  17.5101 40.0101 3.58498 166.938 -86.4254 -166.589
RightUpLeg  -1.68536 -5.11296 -0.786608
RightLeg  1.3844 4.31186 -0.604665
RightFoot  -0.873874 -0.0809854 0.818191
RightToes  5.82063e-011 0 -3.6325e-017
Spine  2.43403 0.835155 4.35079
Spine1  0.344796 1.24958 -2.55146
HEad  -8.36801 -10.6874 -2.8068
LeftShoulder1  0.251901 1.08051 -2.72358
LeftArm  -20.7626 4.8098 -17.4521
LeftForeArm  0.839597 0.947509 2.37163
LeftHand  -0.049394 3.42759 1.87307
RightShoulder  0.0876253 -2.33712 -0.660116
RightArm  -10.7979 2.92163 11.0644
RightForeArm  -1.47455 -1.74461 -3.048
RightHand  -0.0101983 4.43199 -0.389375
LeftUpLeg  -3.84555 8.42157 5.48203
LeftLeg  5.22 -1.21462 -0.411907
LeftFoot  -1.77823 -0.0229275 0.442733
LeftToes  2.58842e-009 -1.78069e-010 3.24654e-012
4
root  17.5101 40.0116 3.5799 167.251 -86.395 -166.899
RightUpLeg  -1.7022 -5.13829 -0.797806
RightLeg  1.41576 4.39494 -0.581215
RightFoot  -0.866738 -0.0806724 0.813334
RightToes  5.82063e-011 0 -3.6325e-017
Spine  2.40161 0.840844 4.39301
Spine1  0.391336 1.26328 -2.59311
HEad  -8.49617 -10.4611 -2.63008
LeftShoulder1  0.251901 1.13135 -2.50251
LeftArm  -20.7817 4.8056 -17.6785
LeftForeArm  0.569216 1.01621 2.38567
LeftHand  -0.0484463 3.56474 2.15837
RightShoulder  0.0876212 -2.35582 -0.633037
RightArm  -10.7979 2.97835 11.0924
RightForeArm  -1.54383 -1.71712 -3.0282
RightHand  -0.0185875 4.3198 -0.502769
LeftUpLeg  -3.85885 8.43676 5.47948
LeftLeg  5.27464 -1.17673 -0.42198
LeftFoot  -1.84862 -0.0321104 0.58545
LeftToes  2.58842e-009 -1.78069e-010 3.24654e-012
5
root  17.5101 40.0078 3.57569 167.087 -86.4242 -166.729
RightUpLeg  -1.70921 -5.12315 -0.785597
RightLeg  1.42207 4.35308 -0.586423
RightFoot  -0.918152 -0.083751 0.861112
RightToes  5.82063e-011 0 -3.6325e-017
Spine  2.30124 0.849797 4.32873
Spine1  0.532589 1.23876 -2.41649
HEad  -8.60203 -10.2576 -2.58415
LeftShoulder1  0.251901 1.11656 -2.59816
LeftArm  -20.6842 4.80348 -17.6238
LeftForeArm  0.336684 0.999526 2.3224
LeftHand  -0.0491695 3.69096 2.21695
RightShoulder  0.0905531 -2.35633 -0.764493
RightArm  -10.7975 3.04124 11.167
RightForeArm  -1.38925 -1.7857 -3.03289
RightHand  -0.0213383 4.30074 -0.536692
LeftUpLeg  -3.88188 8.43701 5.49295
LeftLeg  5.29273 -1.20103 -0.428586
LeftFoot  -1.9088 -0.0244795 0.466854
LeftToes  2.58842e-009 -1.78069e-010 3.24654e-012
6
root  17.5101 40.003 3.56602 167.355 -86.3702 -166.961
RightUpLeg  -1.78481 -5.073 -0.743797
RightLeg  1.4715 4.33978 -0.62265
RightFoot  -0.963533 -0.0896439 0.952563
RightToes  5.82063e-011 0 -3.6325e-017
Spine  2.29637 0.885716 4.13845
Spine1  0.499782 1.20443 -2.03218
HEad  -8.62063 -9.724 -2.70981
LeftShoulder1  0.252493 1.2005 -2.8141
LeftArm  -20.5696 4.862 -17.4754
LeftForeArm  0.152558 0.920956 2.25021
LeftHand  -0.049124 3.62688 2.1481
RightShoulder  0.0994521 -2.19097 -1.02433
RightArm  -10.7635 2.87936 11.2432
RightForeArm  -1.48348 -1.67629 -3.0212
RightHand  -0.031971 4.04785 -0.663403
LeftUpLeg  -3.89385 8.45122 5.51734
LeftLeg  5.25932 -1.20801 -0.434071
LeftFoot  -1.89123 -0.0161811 0.337888
LeftToes  2.58842e-009 -1.78069e-010 3.24654e-012
7
root  17.5098 40.0012 3.57146 168.023 -86.4417 -167.594
RightUpLeg  -1.84535 -5.15574 -0.833887
RightLeg  1.52965 4.38988 -0.579283
RightFoot  -0.913944 -0.0809534 0.817695
RightToes  5.82063e-011 0 -3.6325e-017
Spine  2.32358 0.856173 4.38836
Spine1  0.431215 1.24721 -2.42342
HEad  -8.72786 -9.60475 -2.54841
LeftShoulder1  0.258941 1.09227 -2.59129
LeftArm  -20.4901 5.01666 -17.4909
LeftForeArm  0.299975 0.78302 2.19097
LeftHand  -0.0504074 3.74359 2.22985
RightShoulder  0.100198 -2.22357 -0.837318
RightArm  -10.8624 2.84333 11.1578
RightForeArm  -1.37201 -1.64068 -3.06425
RightHand  -0.020041 4.13629 -0.518574
LeftUpLeg  -3.94967 8.37764 5.41208
LeftLeg  5.23682 -1.1843 -0.409154
LeftFoot  -1.78353 -0.0325207 0.591827
LeftToes  2.58842e-009 -1.78069e-010 3.24654e-012
8
root  17.5075 40.0004 3.56403 167.654 -86.4337 -167.203
RightUpLeg  -1.86586 -5.1097 -0.778645
RightLeg  1.51611 4.32395 -0.601015
RightFoot  -0.8893 -0.0752662 0.72943
RightToes  5.82063e-011 0 -3.6325e-017
Spine  2.3351 0.901752 4.54621
Spine1  0.373974 1.319 -2.56528
HEad  -8.82383 -9.4067 -2.44235
LeftShoulder1  0.271252 0.961322 -2.51415
LeftArm  -20.6007 5.03988 -17.5069
LeftForeArm  0.585998 0.897827 2.28044
LeftHand  -0.0499003 3.79384 2.26027
RightShoulder  0.102488 -2.2558 -0.843617
RightArm  -10.7075 2.81443 11.1481
RightForeArm  -1.42162 -1.71211 -3.02262
RightHand  -0.00402209 4.45846 -0.334089
LeftUpLeg  -3.96734 8.41212 5.46603
LeftLeg  5.2392 -1.2174 -0.433703
LeftFoot  -1.79299 -0.0250162 0.475195
LeftToes  2.58842e-009 -1.78069e-010 3.24654e-012
9
root  17.5023 40.0003 3.55561 168.041 -86.3886 -167.574
RightUpLeg  -1.87172 -5.08873 -0.768912
RightLeg  1.50719 4.3579 -0.616559
RightFoot  -0.95045 -0.0852922 0.885031
RightToes  5.82063e-011 0 -3.6325e-017
Spine  2.27976 0.93769 4.50461
Spine1  0.434703 1.34462 -2.51498
HEad  -8.85147 -9.13884 -2.52103
LeftShoulder1  0.265939 0.989715 -2.42206
LeftArm  -20.7664 5.07648 -17.612
LeftForeArm  1.03492 0.940797 2.3962
LeftHand  -0.0435296 3.97284 1.92702
RightShoulder  0.104758 -2.20699 -0.837121
RightArm  -10.6808 2.92556 11.0929
RightForeArm  -1.65168 -1.88597 -3.02042
RightHand  0.00117892 4.65217 -0.282816
LeftUpLeg  -3.98548 8.4514 5.47578
LeftLeg  5.28076 -1.1845 -0.461467
LeftFoot  -1.81852 -0.0335167 0.607306
LeftToes  2.58842e-009 -1.78069e-010 3.24654e-012
10
root  17.4972 40.0008 3.55221 167.929 -86.4554 -167.444
RightUpLeg  -1.89372 -5.10144 -0.76916
RightLeg  1.54852 4.27924 -0.614934
RightFoot  -0.94173 -0.0797075 0.805795
RightToes  5.82063e-011 0 -3.6325e-017
Spine  2.2829 0.903156 4.6219
Spine1  0.397922 1.33584 -2.65703
HEad  -8.80701 -9.07603 -2.51928
LeftShoulder1  0.26344 1.00021 -2.37221
LeftArm  -20.686 5.06353 -17.56
LeftForeArm  1.2073 0.975153 2.35683
LeftHand  -0.0406529 3.88462 1.68621
RightShoulder  0.105901 -2.151 -0.701349
RightArm  -10.6181 2.88824 10.9739
RightForeArm  -1.89537 -1.82113 -2.98098
RightHand  -0.0322751 4.23682 -0.665977
LeftUpLeg  -3.97413 8.4374 5.47214
LeftLeg  5.24116 -1.22264 -0.466717
LeftFoot  -1.84668 -0.0240319 0.459898
LeftToes  2.58842e-009 -1.78069e-010 3.24654e-012
11
root  17.4937 40.0016 3.54741 167.583 -86.5361 -167.121
RightUpLeg  -1.86899 -5.12614 -0.774589
RightLeg  1.58662 4.23712 -0.596177
RightFoot  -0.938554 -0.0727244 0.722082
RightToes  5.82063e-011 0 -3.6325e-017
Spine  2.35675 0.883748 4.71568
Spine1  0.334303 1.3378 -2.76142
HEad  -8.9346 -9.05359 -2.29857
LeftShoulder1  0.261047 1.00188 -2.20562
LeftArm  -20.8526 5.11872 -17.6567
LeftForeArm  1.07894 1.02426 2.47663
LeftHand  -0.0380471 3.66341 1.69478
RightShoulder  0.104671 -2.21209 -0.41605
RightArm  -10.7018 3.00351 10.7403
RightForeArm  -1.75929 -1.77214 -2.99913
RightHand  -0.0269363 4.43125 -0.604719
LeftUpLeg  -3.94949 8.42852 5.48046
LeftLeg  5.20861 -1.32518 -0.469411
LeftFoot  -1.80965 -0.0249292 0.473843
LeftToes  2.58842e-009 -1.78069e-010 3.24654e-012
12
root  17.4895 40.0027 3.53915 166.915 -86.5461 -166.491
RightUpLeg  -1.81679 -5.09097 -0.726946
RightLeg  1.58386 4.17914 -0.607241
RightFoot  -0.969021 -0.0678211 0.661882
RightToes  5.82063e-011 0 -3.6325e-017
Spine  2.41373 0.922545 4.78167
Spine1  0.344176 1.37179 -2.72001
HEad  -9.12135 -9.18449 -2.35621
LeftShoulder1  0.25906 0.935923 -2.29711
LeftArm  -20.9547 5.07749 -17.6144
LeftForeArm  0.90842 1.04923 2.52979
LeftHand  -0.0407763 3.99217 1.97082
RightShoulder  0.0984342 -2.26436 -0.602229
RightArm  -10.6697 2.84025 10.8682
RightForeArm  -1.97619 -1.55835 -2.96465
RightHand  -0.0402065 4.09705 -0.764189
LeftUpLeg  -3.87955 8.47781 5.55455
LeftLeg  5.17036 -1.36924 -0.490297
LeftFoot  -1.87798 -0.0148393 0.317034
LeftToes  2.58842e-009 -1.78069e-010 3.24654e-012
13
root  17.4839 40.0038 3.53204 167.533 -86.5629 -167.144
RightUpLeg  -1.7506 -5.10911 -0.76503
RightLeg  1.55033 4.18735 -0.612912
RightFoot  -1.01872 -0.0750813 0.788519
RightToes  5.82063e-011 0 -3.6325e-017
Spine  2.39527 0.964105 4.81054
Spine1  0.438316 1.4325 -2.82014
HEad  -9.04169 -9.57403 -2.39714
LeftShoulder1  0.257779 0.9091 -2.29371
LeftArm  -21.1601 5.02009 -17.6645
LeftForeArm  0.743984 1.04751 2.63247
LeftHand  -0.0474439 4.53926 2.1701
RightShoulder  0.0896745 -2.38699 -0.499861
RightArm  -10.6428 2.97479 10.7852
RightForeArm  -2.03391 -1.63803 -2.94542
RightHand  -0.0368342 4.36532 -0.720098
LeftUpLeg  -3.88025 8.48989 5.51473
LeftLeg  5.24543 -1.39526 -0.508243
LeftFoot  -1.74779 -0.0384303 0.683673
LeftToes  2.58842e-009 -1.78069e-010 3.24654e-012
14
root  17.4746 40.0048 3.52564 167.411 -86.5749 -167.02
RightUpLeg  -1.7704 -5.09609 -0.740528
RightLeg  1.62645 4.16083 -0.627097
RightFoot  -1.04274 -0.0714646 0.744565
RightToes  5.82063e-011 0 -3.6325e-017
Spine  2.35797 0.959853 4.86993
Spine1  0.481704 1.43683 -2.8572
HEad  -8.93039 -9.69075 -2.56513
LeftShoulder1  0.257503 0.954657 -2.31963
LeftArm  -21.0133 5.05829 -17.5537
LeftForeArm  0.506065 1.02514 2.55441
LeftHand  -0.0447956 4.03237 1.97777
RightShoulder  0.0954678 -2.34032 -0.374112
RightArm  -10.7039 3.05604 10.6942
RightForeArm  -1.90818 -1.68394 -2.97857
RightHand  -0.0355417 4.3572 -0.707756
LeftUpLeg  -3.82557 8.49026 5.54644
LeftLeg  5.1674 -1.4664 -0.513393
LeftFoot  -1.80179 -0.0250264 0.475353
LeftToes  2.58842e-009 -1.78069e-010 3.24654e-012
15
root  17.4698 40.0053 3.51768 168.021 -86.623 -167.632
RightUpLeg  -1.74386 -5.10462 -0.780601
RightLeg  1.59192 4.14501 -0.636665
RightFoot  -1.07291 -0.0744103 0.800845
RightToes  5.82063e-011 0 -3.6325e-017
Spine  2.35261 0.978237 4.88224
Spine1  0.536979 1.4702 -2.93637
HEad  -9.00802 -9.67356 -2.45304
LeftShoulder1  0.258534 0.944532 -2.3645
LeftArm  -20.8915 5.00611 -17.4819
LeftForeArm  0.587807 1.06092 2.48882
LeftHand  -0.0433252 3.71055 1.76276
RightShoulder  0.0913067 -2.42156 -0.32435
RightArm  -10.6944 3.11101 10.6428
RightForeArm  -2.01293 -1.7003 -2.96216
RightHand  -0.0347213 4.32319 -0.696581
LeftUpLeg  -3.86039 8.4649 5.4887
LeftLeg  5.22591 -1.44593 -0.503528
LeftFoot  -1.78941 -0.0399067 0.706619
LeftToes  2.58842e-009 -1.78069e-010 3.24654e-012
